<svg width="1200" height="800" viewBox="0 0 1200 800" fill="none" xmlns="http://www.w3.org/2000/svg">
  <!-- Background -->
  <rect width="1200" height="800" fill="#f8f9fa"/>
  
  <!-- Header/Navigation -->
  <rect width="1200" height="60" fill="#ffffff"/>
  <rect y="60" width="1200" height="1" fill="#e5e7eb"/>
  
  <!-- Logo -->
  <text x="40" y="40" font-family="Arial, sans-serif" font-size="18" font-weight="600" fill="#1a1c1e">FluxConvert</text>
  
  <!-- Nav Items -->
  <text x="200" y="38" font-family="Arial, sans-serif" font-size="14" fill="#5b8ba8">Word to PDF</text>
  
  <!-- Title Section -->
  <text x="600" y="140" font-family="Arial, sans-serif" font-size="32" font-weight="700" fill="#1a1c1e" text-anchor="middle">Word to PDF Converter</text>
  <text x="600" y="180" font-family="Arial, sans-serif" font-size="16" fill="#6b7280" text-anchor="middle">Convert your Word documents (.docx) to PDF format quickly and easily.</text>
  
  <!-- File Preview Card -->
  <rect x="300" y="230" width="600" height="120" rx="8" fill="#ffffff" stroke="#d1d5db" stroke-width="1"/>
  
  <!-- File Icon -->
  <rect x="330" y="260" width="48" height="48" rx="8" fill="#dbeafe"/>
  <path d="M 345 275 L 345 293 M 363 275 L 363 293 M 345 281 L 363 281 M 345 287 L 363 287" stroke="#2563eb" stroke-width="2" stroke-linecap="round"/>
  
  <!-- File Info -->
  <text x="395" y="280" font-family="Arial, sans-serif" font-size="16" font-weight="500" fill="#1a1c1e">quarterly_report.docx</text>
  <text x="395" y="302" font-family="Arial, sans-serif" font-size="14" fill="#6b7280">2.4 MB</text>
  
  <!-- Remove Button -->
  <circle cx="860" cy="284" r="16" fill="#fee2e2"/>
  <path d="M 854 278 L 866 290 M 866 278 L 854 290" stroke="#dc2626" stroke-width="2" stroke-linecap="round"/>
  
  <!-- Progress Bar (Converting State) -->
  <rect x="330" y="325" width="540" height="4" rx="2" fill="#e5e7eb"/>
  <rect x="330" y="325" width="324" height="4" rx="2" fill="#5b8ba8"/>
  <text x="330" y="318" font-family="Arial, sans-serif" font-size="13" fill="#6b7280">Converting to PDF...</text>
  <text x="870" y="318" font-family="Arial, sans-serif" font-size="13" font-weight="500" fill="#5b8ba8" text-anchor="end">60%</text>
  
  <!-- Action Buttons -->
  <rect x="300" y="380" width="440" height="48" rx="8" fill="#5b8ba8"/>
  <text x="520" y="410" font-family="Arial, sans-serif" font-size="16" font-weight="500" fill="#ffffff" text-anchor="middle">Convert to PDF</text>
  
  <rect x="760" y="380" width="140" height="48" rx="8" fill="#ffffff" stroke="#d1d5db" stroke-width="1"/>
  <text x="830" y="410" font-family="Arial, sans-serif" font-size="16" font-weight="500" fill="#374151" text-anchor="middle">Cancel</text>
  
  <!-- Features Section -->
  <g transform="translate(250, 500)">
    <!-- Feature 1 -->
    <circle cx="120" cy="30" r="24" fill="#e0f2fe"/>
    <rect x="112" y="22" width="16" height="16" rx="2" stroke="#5b8ba8" stroke-width="2" fill="none"/>
    <path d="M 116 30 L 118 32 L 124 26" stroke="#5b8ba8" stroke-width="2" stroke-linecap="round" fill="none"/>
    <text x="120" y="70" font-family="Arial, sans-serif" font-size="14" font-weight="600" fill="#1a1c1e" text-anchor="middle">Secure & Private</text>
    <text x="120" y="90" font-family="Arial, sans-serif" font-size="12" fill="#6b7280" text-anchor="middle">Files deleted after 24h</text>
    
    <!-- Feature 2 -->
    <circle cx="350" cy="30" r="24" fill="#e0f2fe"/>
    <path d="M 342 35 L 350 20 L 358 35" stroke="#5b8ba8" stroke-width="2.5" stroke-linecap="round" stroke-linejoin="round" fill="none"/>
    <text x="350" y="70" font-family="Arial, sans-serif" font-size="14" font-weight="600" fill="#1a1c1e" text-anchor="middle">Fast Conversion</text>
    <text x="350" y="90" font-family="Arial, sans-serif" font-size="12" fill="#6b7280" text-anchor="middle">Convert in seconds</text>
    
    <!-- Feature 3 -->
    <circle cx="580" cy="30" r="24" fill="#e0f2fe"/>
    <circle cx="580" cy="30" r="14" stroke="#5b8ba8" stroke-width="2" fill="none"/>
    <path d="M 575 30 L 578 33 L 585 26" stroke="#5b8ba8" stroke-width="2" stroke-linecap="round" fill="none"/>
    <text x="580" y="70" font-family="Arial, sans-serif" font-size="14" font-weight="600" fill="#1a1c1e" text-anchor="middle">High Quality</text>
    <text x="580" y="90" font-family="Arial, sans-serif" font-size="12" fill="#6b7280" text-anchor="middle">Maintain formatting</text>
  </g>
  
  <!-- Footer -->
  <rect y="740" width="1200" height="60" fill="#ffffff"/>
  <rect y="740" width="1200" height="1" fill="#e5e7eb"/>
  <text x="40" y="775" font-family="Arial, sans-serif" font-size="14" font-weight="600" fill="#1a1c1e">FluxConvert</text>
  <text x="1100" y="775" font-family="Arial, sans-serif" font-size="12" fill="#6b7280" text-anchor="end">© 2024 FluxConvert</text>
</svg>
